<?xml version="1.0" encoding="UTF-8"?>
<svg width="48" height="48" viewBox="0 0 48 48" fill="none" xmlns="http://www.w3.org/2000/svg">
  <defs>
    <linearGradient id="logoGradient1" x1="0%" y1="0%" x2="100%" y2="100%">
      <stop offset="0%" style="stop-color:#6366f1"/>
      <stop offset="50%" style="stop-color:#a855f7"/>
      <stop offset="100%" style="stop-color:#ec4899"/>
    </linearGradient>
    <linearGradient id="logoGradient2" x1="0%" y1="0%" x2="100%" y2="100%">
      <stop offset="0%" style="stop-color:#8A2BE2"/>
      <stop offset="100%" style="stop-color:#a855f7"/>
    </linearGradient>
  </defs>
  
  <!-- Background Grid -->
  <g id="grid" opacity="0.9">
    <!-- Top Row -->
    <circle cx="12" cy="12" r="6" fill="url(#logoGradient1)"/>
    <circle cx="24" cy="12" r="6" fill="url(#logoGradient2)"/>
    <circle cx="36" cy="12" r="6" fill="url(#logoGradient1)"/>
    
    <!-- Middle Row -->
    <circle cx="12" cy="24" r="6" fill="url(#logoGradient2)"/>
    <circle cx="24" cy="24" r="6" fill="url(#logoGradient1)"/>
    <circle cx="36" cy="24" r="6" fill="url(#logoGradient2)"/>
    
    <!-- Bottom Row -->
    <circle cx="12" cy="36" r="6" fill="url(#logoGradient1)"/>
    <circle cx="24" cy="36" r="6" fill="url(#logoGradient2)"/>
    <circle cx="36" cy="36" r="6" fill="url(#logoGradient1)"/>
  </g>
  
  <!-- Connecting Lines -->
  <g id="connections" stroke-width="2" opacity="0.8">
    <!-- Diagonal Lines -->
    <path d="M15 15L21 21" stroke="url(#logoGradient1)"/>
    <path d="M27 15L33 21" stroke="url(#logoGradient2)"/>
    <path d="M15 33L21 27" stroke="url(#logoGradient2)"/>
    <path d="M27 33L33 27" stroke="url(#logoGradient1)"/>
    
    <!-- Vertical and Horizontal Lines -->
    <path d="M24 18L24 30" stroke="url(#logoGradient1)"/>
    <path d="M18 24L30 24" stroke="url(#logoGradient2)"/>
  </g>
</svg>
